<mxfile host="app.diagrams.net" modified="2023-09-28T14:15:13.692Z" agent="Mozilla/5.0 (Windows NT 10.0; Win64; x64) AppleWebKit/537.36 (KHTML, like Gecko) Chrome/116.0.0.0 Safari/537.36" etag="D-M5sA8T0PlK5xqmJ-P0" version="22.0.0" type="google">
  <diagram name="페이지-1" id="rF_rjINZ2u8M4PVZBt1C">
    <mxGraphModel grid="1" page="1" gridSize="10" guides="1" tooltips="1" connect="1" arrows="1" fold="1" pageScale="1" pageWidth="827" pageHeight="1169" math="0" shadow="0">
      <root>
        <mxCell id="0" />
        <mxCell id="1" parent="0" />
        <mxCell id="DHNlIY3CWu0QmG9VFWAz-2" value="ML" style="whiteSpace=wrap;html=1;aspect=fixed;" vertex="1" parent="1">
          <mxGeometry x="240" y="400" width="80" height="80" as="geometry" />
        </mxCell>
        <mxCell id="DHNlIY3CWu0QmG9VFWAz-4" value="Lotto 번호" style="shape=cylinder3;whiteSpace=wrap;html=1;boundedLbl=1;backgroundOutline=1;size=15;" vertex="1" parent="1">
          <mxGeometry x="90" y="400" width="90" height="80" as="geometry" />
        </mxCell>
        <mxCell id="DHNlIY3CWu0QmG9VFWAz-5" value="" style="shape=link;html=1;rounded=0;width=2;" edge="1" parent="1">
          <mxGeometry width="100" relative="1" as="geometry">
            <mxPoint x="460" y="220" as="sourcePoint" />
            <mxPoint x="460" y="650" as="targetPoint" />
          </mxGeometry>
        </mxCell>
        <mxCell id="DHNlIY3CWu0QmG9VFWAz-6" value="기타 WEB" style="whiteSpace=wrap;html=1;aspect=fixed;" vertex="1" parent="1">
          <mxGeometry x="490" y="310" width="80" height="80" as="geometry" />
        </mxCell>
        <mxCell id="DHNlIY3CWu0QmG9VFWAz-7" value="예측 번호" style="whiteSpace=wrap;html=1;aspect=fixed;" vertex="1" parent="1">
          <mxGeometry x="490" y="480" width="80" height="80" as="geometry" />
        </mxCell>
        <mxCell id="DHNlIY3CWu0QmG9VFWAz-8" value="예측 번호" style="whiteSpace=wrap;html=1;aspect=fixed;" vertex="1" parent="1">
          <mxGeometry x="610" y="400" width="80" height="80" as="geometry" />
        </mxCell>
        <mxCell id="DHNlIY3CWu0QmG9VFWAz-9" value="예측 번호" style="whiteSpace=wrap;html=1;aspect=fixed;" vertex="1" parent="1">
          <mxGeometry x="360" y="400" width="80" height="80" as="geometry" />
        </mxCell>
      </root>
    </mxGraphModel>
  </diagram>
</mxfile>
